<svg width="1001" height="662" viewBox="0 0 1001 662" fill="none" xmlns="http://www.w3.org/2000/svg">
<path fill-rule="evenodd" clip-rule="evenodd" d="M739.54 511.816L723.056 470.193C854.74 345.352 778.642 94.9173 577.735 103.39L568.493 80.0483C809.948 58.3369 945.583 331.19 739.54 511.816ZM903.621 174.029C797.094 5.2885 574.429 7.90248 406.211 61.2892C195.524 128.161 -52.9268 338.217 47.4962 585.823L27.261 621.327C-100.993 300.269 249.08 48.0348 539.678 7.28742C687.045 -15.2082 865.611 10.0859 954.917 143.968C1069.98 316.46 947.828 542.877 791.235 642.316L772.399 594.772C897.563 497.516 997.002 321.965 903.621 174.029ZM687.552 380.595C741.646 305.527 697.947 182.747 603.428 168.247L632.536 241.7C648.573 251.402 658.922 273.452 655.539 299.792L687.552 380.595Z" fill="white"/>
<path fill-rule="evenodd" clip-rule="evenodd" d="M394.617 444.77L426.585 340.811C428.661 333.968 430.737 326.48 432.812 318.392C434.904 310.15 436.979 302.062 438.917 293.959C440.87 285.733 442.561 278.26 444.114 271.509C445.682 264.79 446.974 259.316 447.758 255.195L449.188 248.845H450.741L452.187 255.195C453.078 259.316 454.247 264.79 455.815 271.509L461.013 293.959C462.965 302.062 465.041 310.15 467.117 318.392C469.193 326.48 471.269 333.968 473.36 340.811L504.528 444.77H394.617ZM521.672 126.956H378.242L188.836 661.623H329.145L362.665 549.452H536.495L570.784 661.623H711.094L521.672 126.956Z" fill="#F1F1F1"/>
</svg>
