<svg width="8" height="9" viewBox="0 0 8 9" fill="none" xmlns="http://www.w3.org/2000/svg">
<path d="M6.66244 8.63757C6.14794 9.11133 5.58026 9.03748 5.03916 8.81411C4.46389 8.58623 3.93799 8.57182 3.33045 8.81411C2.57386 9.12394 2.17232 9.03387 1.71666 8.63757C-0.855917 6.12466 -0.476201 2.29675 2.44761 2.15264C3.15672 2.18866 3.65321 2.52462 4.07089 2.55254C4.69173 2.43275 5.28598 2.08959 5.95048 2.13462C6.74884 2.19587 7.34594 2.4949 7.74463 3.03261C6.10236 3.96932 6.49158 6.02288 8 6.59932C7.69812 7.35139 7.31081 8.09446 6.6615 8.64388L6.66244 8.63757ZM4.01393 2.12562C3.93704 1.00877 4.89107 0.0900685 5.98845 0C6.13938 1.28798 4.75437 2.25171 4.01393 2.12562Z" fill="white"/>
</svg>
