<svg width="354" height="113" viewBox="0 0 354 113" fill="none" xmlns="http://www.w3.org/2000/svg">
<path d="M139.772 43.3652C142.367 43.3652 144.609 43.8302 146.493 44.7432C148.386 45.6652 149.948 46.9072 151.201 48.4692C152.437 50.0392 153.357 51.8742 153.951 53.9772C154.541 56.0862 154.837 58.3532 154.837 60.7802C154.837 64.5082 154.154 68.0302 152.775 71.3502C151.396 74.6752 149.525 77.5592 147.145 80.0192C144.767 82.4762 141.959 84.4132 138.721 85.8442C135.488 87.2762 131.973 87.9922 128.199 87.9922C127.711 87.9922 126.853 87.9782 125.641 87.9532C124.429 87.9282 123.036 87.8032 121.476 87.5922C119.906 87.3732 118.246 87.0492 116.493 86.6152C114.741 86.1892 113.077 85.5922 111.51 84.8342L125.522 25.9582L138.072 24.0132L133.055 44.9062C134.129 44.4222 135.211 44.0472 136.291 43.7742C137.372 43.5052 138.532 43.3652 139.772 43.3652V43.3652ZM129.245 78.0362C131.135 78.0362 132.916 77.5712 134.589 76.6582C136.267 75.7442 137.715 74.5102 138.928 72.9732C140.141 71.4292 141.101 69.6902 141.801 67.7472C142.501 65.8042 142.855 63.7772 142.855 61.6682C142.855 59.0772 142.422 57.0562 141.559 55.5952C140.696 54.1402 139.099 53.4082 136.78 53.4082C136.02 53.4082 135.041 53.5532 133.827 53.8122C132.609 54.0872 131.519 54.6582 130.542 55.5172L125.2 77.7052C125.522 77.7622 125.807 77.8162 126.05 77.8672C126.288 77.9222 126.551 77.9612 126.813 77.9882C127.09 78.0192 127.407 78.0352 127.79 78.0352C128.173 78.0352 128.652 78.0362 129.245 78.0362V78.0362Z" fill="white"/>
<path d="M167.852 86.8651H155.865L165.988 44.2681H178.057L167.852 86.8651ZM173.685 39.0781C172.012 39.0781 170.495 38.5801 169.149 37.5821C167.792 36.5901 167.12 35.0631 167.12 33.0051C167.12 31.8731 167.35 30.8111 167.806 29.8091C168.269 28.8091 168.874 27.9481 169.632 27.2161C170.389 26.4901 171.266 25.9101 172.262 25.4731C173.264 25.0431 174.33 24.8281 175.466 24.8281C177.138 24.8281 178.647 25.3261 179.998 26.3241C181.344 27.3271 182.021 28.8541 182.021 30.9011C182.021 32.0371 181.792 33.1031 181.332 34.1031C180.875 35.1031 180.27 35.9641 179.512 36.6961C178.761 37.4231 177.876 38.0011 176.882 38.4341C175.879 38.8711 174.817 39.0781 173.685 39.0781Z" fill="white"/>
<path d="M188.562 33.6552L201.117 31.7102L198.034 44.2662H211.48L209.052 54.1442H195.687L192.127 69.0442C191.799 70.2862 191.613 71.4462 191.561 72.5242C191.502 73.6072 191.639 74.5372 191.963 75.3202C192.285 76.1052 192.864 76.7102 193.704 77.1382C194.54 77.5732 195.737 77.7922 197.307 77.7922C198.6 77.7922 199.86 77.6692 201.078 77.4252C202.289 77.1852 203.516 76.8512 204.758 76.4142L205.652 85.6502C204.032 86.2442 202.278 86.7552 200.388 87.1852C198.495 87.6212 196.254 87.8312 193.664 87.8312C189.94 87.8312 187.053 87.2782 184.996 86.1772C182.942 85.0682 181.49 83.5532 180.621 81.6352C179.764 79.7242 179.381 77.5212 179.488 75.0392C179.599 72.5512 179.974 69.9362 180.621 67.1822L188.562 33.6552V33.6552Z" fill="white"/>
<path d="M210.951 69.8553C210.951 66.1863 211.545 62.7263 212.732 59.4873C213.917 56.2453 215.624 53.4103 217.839 50.9773C220.046 48.5563 222.735 46.6383 225.9 45.2303C229.05 43.8303 232.577 43.1243 236.464 43.1243C238.897 43.1243 241.07 43.3543 242.982 43.8153C244.902 44.2803 246.639 44.8813 248.21 45.6353L244.076 55.0353C242.996 54.5973 241.875 54.2113 240.716 53.8613C239.556 53.5043 238.14 53.3323 236.465 53.3323C232.464 53.3323 229.301 54.7113 226.947 57.4603C224.602 60.2113 223.421 63.9143 223.421 68.5593C223.421 71.3123 224.015 73.5383 225.207 75.2413C226.393 76.9443 228.584 77.7913 231.765 77.7913C233.335 77.7913 234.85 77.6273 236.301 77.3073C237.763 76.9833 239.054 76.5753 240.191 76.0933L241.086 85.7293C239.57 86.3173 237.898 86.8483 236.064 87.3133C234.226 87.7623 232.038 87.9953 229.501 87.9953C226.152 87.9953 223.317 87.5053 220.998 86.5403C218.678 85.5603 216.761 84.2593 215.251 82.6113C213.733 80.9593 212.643 79.0303 211.969 76.8163C211.295 74.6043 210.951 72.2803 210.951 69.8553V69.8553Z" fill="white"/>
<path d="M264.202 87.9953C261.341 87.9953 258.856 87.5593 256.748 86.6963C254.646 85.8333 252.905 84.6223 251.528 83.0523C250.149 81.4903 249.117 79.6393 248.41 77.5063C247.703 75.3743 247.363 73.0133 247.363 70.4263C247.363 67.1813 247.884 63.9373 248.937 60.7023C249.985 57.4603 251.54 54.5473 253.598 51.9583C255.64 49.3653 258.159 47.2453 261.125 45.5923C264.088 43.9503 267.496 43.1243 271.324 43.1243C274.133 43.1243 276.605 43.5613 278.742 44.4243C280.869 45.2853 282.621 46.5063 284.006 48.0683C285.376 49.6383 286.417 51.4813 287.117 53.6173C287.822 55.7453 288.17 58.1123 288.17 60.7013C288.17 63.9363 287.656 67.1803 286.636 70.4253C285.615 73.6543 284.1 76.5743 282.1 79.1693C280.104 81.7583 277.608 83.8773 274.61 85.5233C271.616 87.1693 268.144 87.9953 264.202 87.9953V87.9953ZM270.193 53.3333C268.416 53.3333 266.845 53.8493 265.5 54.8683C264.15 55.8993 263.016 57.1953 262.102 58.7583C261.178 60.3283 260.493 62.0403 260.03 63.9013C259.571 65.7663 259.346 67.5293 259.346 69.2043C259.346 71.9073 259.782 74.0123 260.639 75.5273C261.508 77.0343 263.069 77.7923 265.338 77.7923C267.121 77.7923 268.684 77.2803 270.037 76.2503C271.379 75.2273 272.514 73.9303 273.435 72.3643C274.353 70.8023 275.044 69.0853 275.507 67.2213C275.96 65.3623 276.191 63.5893 276.191 61.9173C276.191 59.2213 275.757 57.1113 274.892 55.5983C274.028 54.0913 272.46 53.3333 270.193 53.3333Z" fill="white"/>
<path d="M301.231 86.8651H289.234L299.357 44.2681H311.432L301.231 86.8651V86.8651ZM307.055 39.0781C305.383 39.0781 303.867 38.5801 302.523 37.5821C301.173 36.5901 300.495 35.0631 300.495 33.0051C300.495 31.8731 300.728 30.8111 301.185 29.8091C301.642 28.8091 302.251 27.9481 303.009 27.2161C303.762 26.4901 304.647 25.9101 305.641 25.4731C306.637 25.0431 307.703 24.8281 308.835 24.8281C310.511 24.8281 312.025 25.3261 313.373 26.3241C314.722 27.3271 315.403 28.8541 315.403 30.9011C315.403 32.0371 315.161 33.1031 314.708 34.1031C314.255 35.1031 313.646 35.9641 312.891 36.6961C312.131 37.4231 311.257 38.0011 310.261 38.4341C309.257 38.8711 308.193 39.0781 307.055 39.0781V39.0781Z" fill="white"/>
<path d="M320.073 46.2051C320.983 45.9391 321.999 45.6191 323.104 45.2711C324.213 44.9231 325.452 44.5992 326.836 44.3072C328.205 44.0062 329.75 43.7622 331.449 43.5732C333.148 43.3802 335.084 43.2861 337.235 43.2861C343.557 43.2861 347.915 45.1272 350.321 48.7982C352.725 52.4692 353.141 57.4931 351.581 63.8611L346.067 86.8611H334.001L339.345 64.3452C339.671 62.9392 339.927 61.5801 340.116 60.2521C340.307 58.9361 340.296 57.7762 340.073 56.7722C339.86 55.7802 339.358 54.9681 338.579 54.3391C337.788 53.7201 336.593 53.4091 334.972 53.4091C333.409 53.4091 331.819 53.5772 330.196 53.9012L322.339 86.8601H310.268L320.073 46.2051V46.2051Z" fill="white"/>
<path d="M85.7752 45.4281C87.5647 33.5545 78.4574 27.1716 66.0043 22.9135L70.0439 6.82915L60.1809 4.38917L56.2481 20.0496C53.6552 19.4082 50.9921 18.8032 48.3458 18.2036L52.3068 2.43997L42.4494 0L38.407 16.0787C36.2608 15.5935 34.1539 15.1139 32.1088 14.6092L32.12 14.559L18.5181 11.1876L15.8943 21.6446C15.8943 21.6446 23.2122 23.3094 23.0577 23.4126C27.0523 24.4025 27.7743 27.0265 27.6535 29.1067L23.052 47.4303C23.3273 47.5 23.6842 47.6004 24.0774 47.7565C23.7488 47.6757 23.3976 47.5864 23.0352 47.5L16.5853 73.1685C16.0965 74.3732 14.8577 76.1801 12.0654 75.4941C12.1638 75.6363 4.89642 73.7178 4.89642 73.7178L0 84.925L12.8351 88.1011C15.2229 88.695 17.5629 89.3169 19.8664 89.9025L15.7848 106.171L25.6365 108.611L29.6789 92.5154C32.3701 93.2404 34.9826 93.9097 37.539 94.5399L33.5107 110.56L43.3736 113L47.4553 96.7623C64.2739 99.9218 76.9208 98.6474 82.2441 83.5474C86.5337 71.3894 82.0306 64.3763 73.1817 59.8031C79.6259 58.3279 84.4802 54.12 85.7752 45.4281V45.4281ZM63.24 76.7964C60.1921 88.9544 39.57 82.3818 32.8841 80.7338L38.3003 59.1811C44.9861 60.8375 66.4256 64.1169 63.24 76.7964ZM66.2908 45.2524C63.5097 56.3118 46.3457 50.6928 40.7779 49.3153L45.6884 29.7677C51.2562 31.1452 69.1871 33.7162 66.2908 45.2524Z" fill="white"/>
</svg>
