<svg width="913" height="1002" viewBox="0 0 913 1002" fill="none" xmlns="http://www.w3.org/2000/svg">
<path fill-rule="evenodd" clip-rule="evenodd" d="M904.602 887.185L632.587 330.02V28.6403C632.587 13.1849 620.223 0.0478516 603.995 0.0478516H308.025C292.57 0.0478516 279.433 12.4121 279.433 28.6403V330.02L7.41832 887.185C-4.94596 916.55 -1.85488 945.915 16.6915 967.553C34.4652 989.19 66.1487 1001.55 102.469 1001.55H809.551C845.871 1001.55 877.555 989.19 895.328 967.553C913.875 945.915 916.966 916.55 904.602 887.185ZM658.123 625.644C662.91 624.391 667.456 622.541 671.675 620.178L800.278 864.002C809.551 880.23 809.551 899.549 799.505 915.005C790.232 931.233 772.458 940.506 753.912 940.506H158.108C139.561 940.506 121.788 931.233 112.514 915.005C103.241 898.777 102.468 879.457 111.742 863.229L133.87 823.983C142.672 828.802 152.775 831.543 163.519 831.543C196.047 831.543 222.709 806.419 225.157 774.518L350.412 687.234C354.431 688.116 358.607 688.581 362.891 688.581C367.265 688.581 371.525 688.096 375.622 687.178L461.988 745.796C461.866 747.572 461.804 749.365 461.804 751.172C461.804 793.851 496.402 828.449 539.081 828.449C581.759 828.449 616.357 793.851 616.357 751.172C616.357 738.351 613.235 726.26 607.71 715.617L658.123 625.644ZM610.178 570.35C610.178 551.804 624.861 537.121 643.407 537.121C661.181 537.121 676.636 551.804 674.318 568.805C674.318 587.351 659.635 602.034 641.089 602.034C640.316 602.034 639.544 601.841 638.771 601.647C637.998 601.454 637.225 601.261 636.452 601.261L574.631 713.312C584.677 723.358 590.086 735.723 590.086 750.405C590.086 779.77 566.903 802.953 537.538 802.953C508.173 802.953 484.99 779.77 484.99 750.405C484.99 743.45 486.535 735.723 489.627 729.54L377.575 653.809C372.939 657.673 367.529 659.219 361.347 659.219C355.938 659.219 350.528 657.673 345.892 654.582L200.611 758.133C201.384 761.224 202.157 765.088 202.157 768.952C202.157 789.816 184.383 807.59 163.519 807.59C142.654 807.59 124.88 789.816 124.88 768.952C124.88 748.087 141.881 730.313 163.519 730.313C172.792 730.313 180.519 733.404 187.474 738.814L334.3 635.263V631.399C334.3 615.944 346.665 603.579 362.12 603.579C377.575 603.579 389.94 615.944 389.94 631.399V634.49L504.309 712.54C513.582 704.039 525.174 699.403 538.311 699.403C544.493 699.403 550.675 700.175 556.085 702.494L617.906 591.988C613.269 585.806 610.178 578.851 610.178 570.35Z" fill="white"/>
</svg>
