<svg width="1000" height="1000" viewBox="0 0 1000 1000" fill="none" xmlns="http://www.w3.org/2000/svg">
<path fill-rule="evenodd" clip-rule="evenodd" d="M897 500C897 719.257 719.257 897 500 897C451.815 897 405.635 888.416 362.906 872.693L281.918 950.06C347.825 982.056 421.817 1000 500 1000C776.142 1000 1000 776.142 1000 500C1000 223.858 776.142 0 500 0C223.858 0 0 223.858 0 500C0 554.928 8.85706 607.787 25.2209 657.227L118.559 610.425C108.429 575.369 103 538.319 103 500C103 280.743 280.743 103 500 103C719.257 103 897 280.743 897 500ZM274.228 832.327L838 294L190.774 748.996C176.91 731.801 164.452 713.425 153.572 694.044L61.4019 740.261C96.1673 803.591 144.25 858.574 201.88 901.442L273 833.5L274.228 832.327Z" fill="white"/>
</svg>
