<svg width="157" height="190" viewBox="0 0 157 190" fill="none" xmlns="http://www.w3.org/2000/svg">
<path d="M45.8348 189.108L95.679 109.698L44.7387 28.9316H0L51.8346 109.698L3.11528 189.108H45.8348Z" fill="white"/>
<path d="M114.024 0C90.3714 0 71.1895 19.182 71.1895 42.8349C71.1895 66.4878 90.3714 85.6698 114.024 85.6698C137.677 85.6698 156.859 66.4878 156.859 42.8349C156.859 19.182 137.677 0 114.024 0ZM133.206 54.719C129.168 53.421 122.649 51.9211 116.88 53.3633C111.198 54.7767 103.929 62.1611 99.198 67.5839C98.823 68.0166 97.6115 67.209 97.8711 66.7186C100.9 60.2861 104.592 50.825 103.179 45.1713C101.736 39.4023 97.3519 34.3545 94.3232 31.4123C93.9482 31.0373 94.5828 29.97 95.102 30.1431C99.1403 31.4411 105.659 32.941 111.428 31.4988C117.197 30.0565 122.245 25.7009 125.216 22.6434C125.591 22.2684 126.658 22.903 126.485 23.4222C125.187 27.4605 123.687 33.9506 125.13 39.7196C126.572 45.4886 130.928 50.5077 133.985 53.4787C134.36 53.796 133.726 54.8921 133.206 54.719Z" fill="white"/>
</svg>
