<svg width="1000" height="1000" viewBox="0 0 1000 1000" fill="none" xmlns="http://www.w3.org/2000/svg">
<path d="M998.512 771.492C966.99 763.56 934.875 758.201 902.485 755.468C898.647 755.468 893.161 753.495 891.62 749.847L747.864 414.959C746.529 411.785 744.126 409.177 741.07 407.588C738.015 405.999 734.5 405.528 731.134 406.258C702.431 412.905 629.783 428.876 604.783 436.036C578.026 443.603 468.594 476.354 436.513 486.028V359.536C518.945 339.053 599.756 392.693 682.188 368.48C685.36 367.493 688.147 365.546 690.165 362.909C692.184 360.271 693.334 357.072 693.458 353.753C695.674 299.709 705.485 245.664 708.566 191.619C708.706 189.321 708.301 187.022 707.386 184.909C706.47 182.796 705.069 180.929 703.296 179.459C701.546 178.012 699.472 177.01 697.25 176.539C695.028 176.068 692.726 176.143 690.539 176.757C605.161 197.051 521.35 138.547 435.486 171.055H432.107C430.382 171.069 428.677 171.423 427.089 172.096C425.501 172.769 424.061 173.748 422.851 174.978C421.641 176.207 420.686 177.663 420.039 179.262C419.392 180.861 419.066 182.571 419.08 184.296V495.783C400.432 511.645 355.513 551.098 328.648 585.767C312.837 605.142 295.405 623.058 276.594 639.38C261.899 652.614 246.708 665.288 231.054 677.373C223.567 682.237 215.946 687.074 208.351 691.776C166.702 717.366 123.351 739.876 88.4323 750.874C88.4323 750.874 37.2162 765.845 8.18917 775.789C5.27026 776.789 0 778.383 0 780.437C0 782.49 34.4864 782.95 81.8917 782.058C129.351 781.112 176.648 779.518 224.027 778.005L366.053 773.465C425.172 771.486 484.299 769.747 543.432 768.25C555.269 768.033 567.053 767.574 578.891 767.439C602.485 766.952 626.107 766.628 649.729 766.358C696.972 766.358 744.215 766.358 791.458 767.655C838.674 768.898 885.917 771.222 933.215 773.33L997.431 776.329C998.016 776.336 998.585 776.14 999.043 775.775C999.501 775.411 999.818 774.899 999.942 774.327C1000.07 773.755 999.989 773.158 999.723 772.637C999.458 772.115 999.02 771.701 998.485 771.465L998.512 771.492ZM512.486 191.592C512.558 190.775 512.843 189.99 513.312 189.317C513.782 188.644 514.419 188.105 515.161 187.755C515.898 187.414 516.713 187.276 517.521 187.357C518.329 187.438 519.101 187.734 519.756 188.214L623.864 263.066C624.537 263.546 625.074 264.194 625.421 264.944C625.768 265.695 625.913 266.523 625.842 267.347C625.771 268.171 625.487 268.962 625.017 269.643C624.546 270.323 623.907 270.869 623.161 271.227L507.486 325.542C506.751 325.887 505.937 326.029 505.129 325.953C504.321 325.877 503.548 325.586 502.891 325.11C502.23 324.624 501.706 323.975 501.37 323.227C501.034 322.479 500.897 321.657 500.972 320.84L512.486 191.592ZM656.269 480.731C639.382 500.432 623.919 521.31 609.999 543.207C540.918 650.972 484.161 716.313 461.269 739.849C459.436 741.722 456.99 742.873 454.378 743.092C450.999 743.497 447.621 744.092 444.296 744.821C431.679 747.602 418.541 746.892 406.297 742.767L404.27 742.119C402.534 741.369 401.017 740.193 399.86 738.698C398.703 737.204 397.943 735.441 397.652 733.574C397.36 731.707 397.547 729.796 398.193 728.021C398.84 726.245 399.926 724.662 401.351 723.419C435.567 693.83 508.972 629.219 552.891 556.475C553.13 556.148 553.281 555.765 553.328 555.362C553.375 554.96 553.318 554.552 553.161 554.178C553.398 553.86 553.548 553.485 553.594 553.09C553.641 552.696 553.583 552.297 553.427 551.931C553.271 551.566 553.022 551.249 552.705 551.01C552.388 550.771 552.013 550.62 551.619 550.571C551.225 550.522 550.825 550.577 550.459 550.731C550.093 550.885 549.774 551.132 549.534 551.448C549.293 551.764 549.139 552.137 549.088 552.531C549.037 552.925 549.09 553.325 549.242 553.692C513.188 596.063 423.026 696.208 341.945 737.201C332.324 742.173 274.405 754.711 257.351 756.225H255.351C239.27 754.63 224.946 748.145 208.702 744.092C205.368 743.217 201.995 742.496 198.594 741.93C195.548 741.326 192.761 739.8 190.612 737.559C188.462 735.318 187.055 732.47 186.58 729.401C186.105 726.333 186.585 723.192 187.956 720.406C189.327 717.62 191.522 715.323 194.243 713.826C200.729 710.07 207.756 706.233 214.243 702.261L219.756 698.802C222.81 696.883 225.81 694.884 228.783 692.911C264.324 670.131 299.486 646.973 334.324 623.464C354.633 610.509 374.187 596.407 392.891 581.228C401.27 573.986 394.702 572.256 389.243 575.769C374.729 585.254 346.756 601.305 331.675 609.925C331.294 610.117 330.857 610.169 330.441 610.07C330.026 609.971 329.659 609.728 329.405 609.385C329.148 609.036 329.018 608.61 329.038 608.177C329.058 607.744 329.225 607.331 329.513 607.007C353.405 581.606 421.513 510.132 444.296 500.431C471.81 488.622 532.972 470.436 585.621 455.601C587.374 455.092 589.255 455.26 590.891 456.071C592.527 456.881 593.8 458.275 594.458 459.978C595.146 461.686 595.188 463.585 594.577 465.321C593.965 467.057 592.741 468.51 591.134 469.409C550.54 496.404 526.675 514.753 518.215 526.102C517.804 526.64 517.596 527.306 517.625 527.982C517.655 528.659 517.921 529.304 518.378 529.804C518.827 530.294 519.438 530.604 520.099 530.679C520.759 530.753 521.425 530.587 521.972 530.209C573.431 497.458 599.458 478.218 642.08 458.06C656.593 451.034 666.81 468.463 656.269 480.758V480.731ZM868.323 746.415C848.809 744.551 743.593 734.472 717.701 734.336C717.444 734.326 717.191 734.263 716.959 734.152C716.726 734.04 716.519 733.882 716.35 733.688C716.174 733.491 716.04 733.259 715.956 733.008C715.873 732.758 715.841 732.492 715.864 732.229L743.404 452.088C743.273 451.821 743.207 451.527 743.211 451.23C743.215 450.933 743.289 450.641 743.426 450.377C743.564 450.114 743.762 449.887 744.004 449.714C744.246 449.542 744.525 449.429 744.819 449.384C745.113 449.34 745.413 449.365 745.695 449.458C745.978 449.551 746.234 449.71 746.444 449.92C746.653 450.131 746.81 450.388 746.902 450.671C746.994 450.953 747.018 451.254 746.972 451.547L870.08 743.821C870.224 744.112 870.287 744.435 870.263 744.759C870.239 745.082 870.129 745.393 869.944 745.659C869.767 745.919 869.522 746.126 869.237 746.259C868.952 746.392 868.636 746.446 868.323 746.415Z" fill="#212935"/>
</svg>
