<svg width="1021" height="878" viewBox="0 0 1021 878" fill="none" xmlns="http://www.w3.org/2000/svg">
<path d="M421.548 34.6621H421.069C395.179 34.6621 374.084 55.7574 374.084 81.6469V326.48C374.563 352.209 395.179 372.826 420.91 373.464C446.639 372.986 467.414 352.209 467.894 326.48V81.6469C467.894 55.9172 447.279 34.9818 421.548 34.6621Z" fill="url(#paint0_linear_6_5)"/>
<path d="M240.95 113.129C215.06 113.129 194.125 134.064 193.966 159.953V234.426C193.966 260.316 215.06 281.412 240.95 281.412C266.839 281.412 287.775 260.316 287.775 234.426V159.953C287.775 134.064 266.839 113.289 240.95 113.129Z" fill="url(#paint1_linear_6_5)"/>
<path d="M602.292 616.379C576.402 616.379 555.467 637.475 555.467 663.364V698.203C555.467 724.093 576.402 745.028 602.292 745.028C628.181 745.028 648.956 724.093 649.117 698.203V663.364C648.637 637.634 628.021 617.017 602.292 616.379Z" fill="url(#paint2_linear_6_5)"/>
<path d="M240.95 485.174C215.06 485.174 194.125 506.109 193.966 531.999V586.814C193.966 612.704 215.06 633.798 240.95 633.798C266.839 633.798 287.775 612.704 287.775 586.814V531.999C287.775 506.109 266.839 485.333 240.95 485.174Z" fill="url(#paint3_linear_6_5)"/>
<path d="M60.2223 255.84C34.3326 255.84 13.3972 276.776 13.3972 302.665V389.604C13.3972 415.493 34.3326 436.268 60.2223 436.429C86.1118 436.429 106.887 415.493 107.047 389.604V302.665C107.047 276.776 86.1118 255.999 60.2223 255.84Z" fill="url(#paint4_linear_6_5)"/>
<path d="M421.555 517.135C395.665 517.135 374.89 538.071 374.73 563.96V618.457C374.73 644.346 395.665 665.282 421.555 665.442C446.965 664.642 467.421 644.026 467.901 618.457V563.96C467.901 538.39 447.125 517.455 421.555 517.135Z" fill="url(#paint5_linear_6_5)"/>
<path d="M602.292 385.291C576.402 385.291 555.467 406.226 555.467 432.116V543.985C555.786 569.554 576.721 590.17 602.292 590.329V590.969C628.181 590.969 649.117 569.873 649.117 543.985V432.116C649.117 406.226 628.181 385.451 602.292 385.291Z" fill="url(#paint6_linear_6_5)"/>
<path d="M783.019 84.0449C757.131 84.0449 736.194 104.98 736.035 130.87V244.177C736.035 270.067 757.131 291.002 783.019 291.002C808.91 291.002 829.685 270.067 829.844 244.177V130.87C829.844 104.98 808.91 84.2048 783.019 84.0449Z" fill="url(#paint7_linear_6_5)"/>
<path d="M963.315 337.028C937.426 337.028 916.49 358.124 916.49 384.014V598.801C916.49 624.691 937.426 645.626 963.315 645.787H964.274C990.164 645.787 1011.26 624.691 1011.26 598.801V383.055C1010.78 357.164 989.205 336.549 963.315 337.028Z" fill="url(#paint8_linear_6_5)"/>
<path d="M783.019 464.558C757.131 464.558 736.035 485.652 736.035 511.542V830.048C736.035 855.939 757.131 876.873 783.019 876.873C808.91 876.873 829.685 855.939 829.844 830.048V511.542C829.844 485.652 808.91 464.717 783.019 464.558Z" fill="url(#paint9_linear_6_5)"/>
<path d="M602.292 13.7275C576.402 13.7275 555.467 34.8228 555.467 60.7124V177.216C555.467 203.106 576.402 224.041 602.292 224.041C628.181 224.041 648.956 203.106 649.117 177.216V60.7124C648.637 34.9826 628.021 14.3668 602.292 13.7275Z" fill="url(#paint10_linear_6_5)"/>
<path d="M963.302 169.706L964.421 169.387C958.348 169.387 952.116 170.504 946.522 172.742C922.709 182.33 911.204 209.499 920.793 233.311L804.13 340.705C797.736 337.669 790.865 336.07 783.833 336.07C772.007 336.07 760.659 340.386 751.87 348.216L649.431 298.195C649.431 296.917 649.431 295.798 649.431 294.52C649.431 268.629 628.495 247.695 602.606 247.695C576.715 247.695 555.781 268.629 555.781 294.52C555.781 299.952 556.74 305.387 558.497 310.5L442.953 413.099C436.4 409.745 429.208 407.986 421.857 407.986C410.83 407.986 400.123 411.821 391.653 419.013L287.775 363.239V357.965C287.775 356.207 287.775 354.29 287.775 352.531C286.336 326.641 263.963 306.825 238.073 308.422C212.184 309.862 192.367 332.235 193.964 358.125C193.964 363.877 195.083 369.631 197.161 375.065L80.498 483.258C74.1056 480.221 67.2337 478.623 60.2018 478.623C59.7224 478.623 59.243 478.623 58.7635 478.623C32.874 478.783 12.0983 499.879 12.4179 525.767C12.7376 551.658 33.8329 572.433 59.7224 572.114C85.6121 571.794 106.388 550.699 106.068 524.808C106.068 519.056 104.949 513.303 103.032 507.868L219.695 399.675C225.927 402.713 232.959 404.31 239.991 404.31C251.018 404.31 261.726 400.475 270.196 393.283L374.073 449.057V454.492C375.512 478.304 394.369 497.322 418.182 498.6C444.072 500.038 466.285 480.382 467.884 454.492C467.884 449.057 466.925 443.624 465.007 438.511L580.551 336.07C587.104 339.426 594.295 341.024 601.647 341.024C613.473 341.024 624.819 336.87 633.61 328.878L736.049 379.06C736.049 380.179 736.049 381.457 736.049 382.576C736.049 384.335 736.049 386.251 736.049 388.01C737.487 413.899 759.861 433.716 785.75 432.117C811.64 430.679 831.456 408.305 829.859 382.416C829.859 376.982 828.74 371.549 826.822 366.435L943.165 258.242C949.399 261.278 956.27 262.876 963.302 262.876C989.031 262.876 1009.97 241.941 1009.97 216.212C1009.97 190.481 989.031 169.546 963.302 169.546V169.706Z" fill="url(#paint11_linear_6_5)"/>
<defs>
<linearGradient id="paint0_linear_6_5" x1="-208.113" y1="832.926" x2="879.571" y2="-254.758" gradientUnits="userSpaceOnUse">
<stop stop-color="#174FF3"/>
<stop offset="0.22" stop-color="#195AF1"/>
<stop offset="0.54" stop-color="#21A3E2"/>
<stop offset="0.66" stop-color="#24BFDC"/>
<stop offset="0.74" stop-color="#25C9DB"/>
<stop offset="0.87" stop-color="#25C9DB"/>
<stop offset="1" stop-color="#25C9DB"/>
</linearGradient>
<linearGradient id="paint1_linear_6_5" x1="-301.454" y1="739.594" x2="786.23" y2="-348.091" gradientUnits="userSpaceOnUse">
<stop stop-color="#174FF3"/>
<stop offset="0.22" stop-color="#195AF1"/>
<stop offset="0.54" stop-color="#21A3E2"/>
<stop offset="0.66" stop-color="#24BFDC"/>
<stop offset="0.74" stop-color="#25C9DB"/>
<stop offset="0.87" stop-color="#25C9DB"/>
<stop offset="1" stop-color="#25C9DB"/>
</linearGradient>
<linearGradient id="paint2_linear_6_5" x1="120.936" y1="1162.14" x2="1208.78" y2="74.2944" gradientUnits="userSpaceOnUse">
<stop stop-color="#174FF3"/>
<stop offset="0.22" stop-color="#195AF1"/>
<stop offset="0.54" stop-color="#21A3E2"/>
<stop offset="0.66" stop-color="#24BFDC"/>
<stop offset="0.74" stop-color="#25C9DB"/>
<stop offset="0.87" stop-color="#25C9DB"/>
<stop offset="1" stop-color="#25C9DB"/>
</linearGradient>
<linearGradient id="paint3_linear_6_5" x1="-120.386" y1="920.822" x2="967.458" y2="-167.021" gradientUnits="userSpaceOnUse">
<stop stop-color="#174FF3"/>
<stop offset="0.22" stop-color="#195AF1"/>
<stop offset="0.54" stop-color="#21A3E2"/>
<stop offset="0.66" stop-color="#24BFDC"/>
<stop offset="0.74" stop-color="#25C9DB"/>
<stop offset="0.87" stop-color="#25C9DB"/>
<stop offset="1" stop-color="#25C9DB"/>
</linearGradient>
<linearGradient id="paint4_linear_6_5" x1="-317.415" y1="723.771" x2="770.429" y2="-364.072" gradientUnits="userSpaceOnUse">
<stop stop-color="#174FF3"/>
<stop offset="0.22" stop-color="#195AF1"/>
<stop offset="0.54" stop-color="#21A3E2"/>
<stop offset="0.66" stop-color="#24BFDC"/>
<stop offset="0.74" stop-color="#25C9DB"/>
<stop offset="0.87" stop-color="#25C9DB"/>
<stop offset="1" stop-color="#25C9DB"/>
</linearGradient>
<linearGradient id="paint5_linear_6_5" x1="-14.4135" y1="1026.78" x2="1073.43" y2="-61.0664" gradientUnits="userSpaceOnUse">
<stop stop-color="#174FF3"/>
<stop offset="0.22" stop-color="#195AF1"/>
<stop offset="0.54" stop-color="#21A3E2"/>
<stop offset="0.66" stop-color="#24BFDC"/>
<stop offset="0.74" stop-color="#25C9DB"/>
<stop offset="0.87" stop-color="#25C9DB"/>
<stop offset="1" stop-color="#25C9DB"/>
</linearGradient>
<linearGradient id="paint6_linear_6_5" x1="24.5692" y1="1065.77" x2="1112.41" y2="-22.0719" gradientUnits="userSpaceOnUse">
<stop stop-color="#174FF3"/>
<stop offset="0.22" stop-color="#195AF1"/>
<stop offset="0.54" stop-color="#21A3E2"/>
<stop offset="0.66" stop-color="#24BFDC"/>
<stop offset="0.74" stop-color="#25C9DB"/>
<stop offset="0.87" stop-color="#25C9DB"/>
<stop offset="1" stop-color="#25C9DB"/>
</linearGradient>
<linearGradient id="paint7_linear_6_5" x1="-35.3804" y1="1005.84" x2="1052.46" y2="-82.0003" gradientUnits="userSpaceOnUse">
<stop stop-color="#174FF3"/>
<stop offset="0.22" stop-color="#195AF1"/>
<stop offset="0.54" stop-color="#21A3E2"/>
<stop offset="0.66" stop-color="#24BFDC"/>
<stop offset="0.74" stop-color="#25C9DB"/>
<stop offset="0.87" stop-color="#25C9DB"/>
<stop offset="1" stop-color="#25C9DB"/>
</linearGradient>
<linearGradient id="paint8_linear_6_5" x1="207.083" y1="1248.28" x2="1294.93" y2="160.435" gradientUnits="userSpaceOnUse">
<stop stop-color="#174FF3"/>
<stop offset="0.22" stop-color="#195AF1"/>
<stop offset="0.54" stop-color="#21A3E2"/>
<stop offset="0.66" stop-color="#24BFDC"/>
<stop offset="0.74" stop-color="#25C9DB"/>
<stop offset="0.87" stop-color="#25C9DB"/>
<stop offset="1" stop-color="#25C9DB"/>
</linearGradient>
<linearGradient id="paint9_linear_6_5" x1="206.257" y1="1247.48" x2="1294.1" y2="159.636" gradientUnits="userSpaceOnUse">
<stop stop-color="#174FF3"/>
<stop offset="0.22" stop-color="#195AF1"/>
<stop offset="0.54" stop-color="#21A3E2"/>
<stop offset="0.66" stop-color="#24BFDC"/>
<stop offset="0.74" stop-color="#25C9DB"/>
<stop offset="0.87" stop-color="#25C9DB"/>
<stop offset="1" stop-color="#25C9DB"/>
</linearGradient>
<linearGradient id="paint10_linear_6_5" x1="-160.014" y1="881.189" x2="927.83" y2="-206.655" gradientUnits="userSpaceOnUse">
<stop stop-color="#174FF3"/>
<stop offset="0.22" stop-color="#195AF1"/>
<stop offset="0.54" stop-color="#21A3E2"/>
<stop offset="0.66" stop-color="#24BFDC"/>
<stop offset="0.74" stop-color="#25C9DB"/>
<stop offset="0.87" stop-color="#25C9DB"/>
<stop offset="1" stop-color="#25C9DB"/>
</linearGradient>
<linearGradient id="paint11_linear_6_5" x1="269.077" y1="790.257" x2="748.035" y2="-39.329" gradientUnits="userSpaceOnUse">
<stop stop-color="#BB1274"/>
<stop offset="0.24" stop-color="#C01B6D"/>
<stop offset="0.45" stop-color="#CD325F"/>
<stop offset="0.66" stop-color="#E45848"/>
<stop offset="1" stop-color="#F37535"/>
</linearGradient>
</defs>
</svg>
