<svg width="620" height="176" viewBox="0 0 620 176" fill="none" xmlns="http://www.w3.org/2000/svg">
<path d="M87.6 0.5C39.5 0.5 0.5 39.5 0.5 87.6C0.5 135.7 39.5 174.7 87.6 174.7C135.7 174.7 174.7 135.7 174.7 87.6C174.6 39.5 135.7 0.5 87.6 0.5ZM88.9 90.4L79.9 121H128.3C130 121 131.1 122.6 130.7 124.2L126.5 138.7C126.1 140.1 124.8 141.1 123.3 141.1H49.3L61.8 98.8L48 103.1L51 93.1L64.9 88.8L82.5 29.4C82.9 28 84.2 27 85.7 27H104.4C106.1 27 107.2 28.6 106.8 30.2L91.9 80.4L105.7 76.1L102.7 86.2L88.9 90.4Z" fill="white"/>
<path d="M225 26.8999H219.6C218.6 26.8999 217.9 27.4999 217.7 28.4999L203.7 139.4C203.6 140.5 203.9 141 205 141H210.4C211.5 141 212.1 140.5 212.3 139.4L226.4 28.4999C226.7 27.3999 226.1 26.8999 225 26.8999Z" fill="white"/>
<path d="M253.299 58.8999H247.899C246.899 58.8999 246.199 59.3999 245.999 60.4999L235.999 139.5C235.899 140.6 236.499 141.1 237.499 141.1H242.899C243.899 141.1 244.599 140.6 244.799 139.5L254.699 60.5999C254.799 59.4999 254.399 58.8999 253.299 58.8999Z" fill="white"/>
<path d="M489.9 57.6001C482.4 57.6001 475.9 59.7001 470.4 64.0001C464.9 68.3001 461.3 73.9001 459.5 80.9001C458 86.6001 456.7 94.6001 456.1 100C455.3 107.3 454.6 113.3 454.6 119.1C454.7 126.2 457 131.8 461.3 136.1C465.7 140.3 471.7 142.5 479.3 142.5C486.7 142.5 493.2 140.4 498.7 136.1C504.2 131.9 507.8 126.2 509.6 119.1C510.8 114.4 512 108.1 513 100C514 91.6001 514.5 85.2001 514.5 80.8001C514.5 73.8001 512.3 68.2001 507.9 64.0001C503.4 59.7001 497.4 57.6001 489.9 57.6001ZM505.1 92.3001C504.6 96.3001 504.3 98.9001 504.2 100C503.2 108.2 502.3 114 501.5 117.5C500.3 122.7 497.7 126.9 493.8 130.1C489.9 133.3 485.3 134.8 480.2 134.8C475 134.8 470.9 133.2 467.8 130.1C464.7 127 463.2 122.9 463.2 117.8C463.2 115.1 463.5 111.7 464 107.7C464.5 103.7 464.8 101.1 464.9 100C465.9 92.2001 466.8 86.4001 467.6 82.5001C468.8 77.3001 471.4 73.1001 475.3 69.9001C479.2 66.7001 483.8 65.2001 488.9 65.2001C494.1 65.2001 498.2 66.8001 501.3 69.8001C504.4 72.9001 505.9 77.0001 505.9 82.1001C505.9 85.0001 505.6 88.3001 505.1 92.3001Z" fill="white"/>
<path d="M545.3 58.8999H540C539 58.8999 538.3 59.4999 538.1 60.4999L528 139.5C527.9 140.6 528.5 141.1 529.5 141.1H534.9C535.9 141.1 536.6 140.6 536.8 139.5L546.7 60.5999C546.8 59.4999 546.4 58.8999 545.3 58.8999Z" fill="white"/>
<path d="M613.5 63.6C609.8 59.7 604.6 57.8 597.8 57.8C593.4 57.8 589.4 58.6 585.7 60.3C582 62 578.9 64.5001 576.3 67.9001C575.8 68.3001 575.6 68.2 575.6 67.6L576.4 60.6C576.5 59.6 576.1 59 575.1 59H569.7C568.7 59 568 59.6 567.8 60.6L557.9 139.5C557.8 140.5 558.1 141.1 559.2 141.1H564.6C565.6 141.1 566.3 140.5 566.4 139.5L573.6 82.9001C574.8 77.6001 577.3 73.3 581 70.2C584.7 67.1 589.1 65.5 594.3 65.5C599.1 65.5 602.9 67 605.7 70C608.5 73 609.9 77 609.9 82.1C609.9 83.6 609.8 84.8 609.7 85.7L602.8 139.5C602.8 140 602.8 140.3 603 140.6C603.3 140.9 603.7 141.1 604.3 141.1H609.7C610.7 141.1 611.4 140.6 611.5 139.5L618.4 84.4001C618.6 82.2001 618.7 80.6 618.7 79.5C619 72.7 617.2 67.4 613.5 63.6Z" fill="white"/>
<path d="M256.8 27.0001C253.6 25.3001 249.5 26.5001 247.9 29.8001C246.2 33.0001 247.5 37.1001 250.7 38.8001C253.9 40.5001 257.9 39.2001 259.6 36.0001C261.3 32.7001 260.1 28.7001 256.8 27.0001Z" fill="white"/>
<path d="M549.201 27.0001C546.001 25.3001 541.9 26.5001 540.3 29.8001C538.6 33.0001 539.9 37.1001 543.1 38.8001C546.3 40.5001 550.4 39.2001 552.1 36.0001C553.7 32.7001 552.401 28.7001 549.201 27.0001Z" fill="white"/>
<path d="M419.5 57.6001C412 57.6001 405.5 59.8001 400 64.0001C394.5 68.3001 390.9 73.9001 389.1 80.9001C387.6 86.6001 386.2 95.6001 385.7 100C385 106.4 384.2 113.3 384.2 119.1C384.3 126.2 386.6 131.8 390.9 136.1C395.3 140.3 401.3 142.5 408.9 142.5C416.3 142.5 422.8 140.4 428.3 136.1C433.8 131.9 437.4 126.2 439.2 119.1C439.3 118.5 439.5 117.9 439.6 117.3C439.7 116.8 439.3 116.4 438.9 116.4H432.2C431.8 116.4 431.3 116.6 431.2 117.2C431.2 117.3 431.1 117.5 431.1 117.5C429.9 122.7 427.3 126.9 423.4 130.1C419.5 133.3 414.9 134.8 409.8 134.8C404.6 134.8 400.5 133.2 397.4 130.1C394.3 127 392.8 122.9 392.8 117.8C392.8 115.1 393.1 111.7 393.6 107.7C394 104.3 394.4 101.1 394.5 100C395.5 92.2001 396.4 86.4001 397.2 82.5001C398.4 77.3001 401 73.1001 404.9 69.9001C408.8 66.7001 413.4 65.2001 418.5 65.2001C423.6 65.2001 427.8 66.7001 430.9 69.8001C434 72.9001 435.5 77.0001 435.5 82.1001V82.2001C435.5 82.9001 436.1 83.5001 436.8 83.5001H443.1C443.6 83.5001 444.1 83.1001 444.1 82.5001C444.1 81.8001 444.1 81.2001 444.1 80.6001C444.1 73.6001 441.9 68.0001 437.5 63.8001C433 59.7001 427.1 57.6001 419.5 57.6001Z" fill="white"/>
<path d="M365.2 64.0001C360.8 59.8001 354.8 57.6001 347.3 57.6001C339.8 57.6001 333.3 59.7001 327.8 64.0001C322.3 68.3001 318.7 73.9001 316.9 80.9001C315.4 86.6001 314.7 91.7001 313.5 100C312.4 108.2 312 113.3 312 119.1C312.1 126.2 314.4 131.8 318.7 136.1C323.1 140.3 329.1 142.5 336.7 142.5C344.1 142.5 350.6 140.4 356.1 136.1C361.6 131.9 365.2 126.2 367 119.1C367.1 118.5 367.3 117.9 367.4 117.3C367.5 116.8 367.2 116.4 366.7 116.4H360C359.6 116.4 359.1 116.6 359 117.2C359 117.3 358.9 117.5 358.9 117.5C357.7 122.7 355.1 126.9 351.2 130.1C347.3 133.3 342.7 134.8 337.6 134.8C332.4 134.8 328.3 133.2 325.2 130.1C322.1 127 320.6 122.9 320.6 117.8C320.6 115.4 320.8 112.4 321.2 109L369.8 93.9001C370.8 93.6001 371.2 93.1001 371.4 91.9001C371.7 89.4001 371.9 85.1001 371.9 80.7001C371.8 74.4001 369.6 68.2001 365.2 64.0001ZM363.3 86.7001C363.3 87.2001 363 87.6001 362.5 87.7001L322.2 100.2C322.2 100.1 322.2 100.1 322.2 100C323.2 92.2001 324.1 86.4001 324.9 82.5001C326.1 77.3001 328.7 73.1001 332.6 69.9001C336.5 66.7001 341.1 65.2001 346.2 65.2001C351.4 65.2001 355.5 66.8001 358.6 69.8001C363.5 74.9001 363.6 80.1001 363.3 86.7001Z" fill="white"/>
<path d="M293.501 132.4C294.501 131.9 295.601 132.6 295.401 133.7L294.701 139.1C294.601 139.8 294.101 140.4 293.501 140.7C288.701 142.5 282.001 143.3 276.601 140.9C270.401 138.1 268.801 132 269.701 124.4L276.801 66.5L277.801 58.2L280.201 39.7999C280.301 38.6999 281.001 38.2 282.101 38.2H287.301C288.501 38.2 288.801 38.8999 288.601 39.7999L285.501 66H302.401C303.401 66 303.801 66.5999 303.801 67.5999L303.301 71.4C303.201 72 303.101 72.2999 302.801 72.6999C302.501 72.9999 301.901 73.0999 301.501 73.0999H284.701L278.801 120.6C278.201 125.7 277.501 130.3 280.101 132.8C283.501 135.6 290.101 134 293.501 132.4Z" fill="white"/>
</svg>
