<svg width="124" height="33" viewBox="0 0 124 33" fill="none" xmlns="http://www.w3.org/2000/svg">
<path d="M46.2113 6.74902H39.3723C38.9043 6.74902 38.5063 7.08902 38.4333 7.55102L35.6673 25.088C35.6123 25.434 35.8803 25.746 36.2313 25.746H39.4963C39.9643 25.746 40.3623 25.406 40.4353 24.943L41.1813 20.213C41.2533 19.75 41.6523 19.41 42.1193 19.41H44.2843C48.7893 19.41 51.3893 17.23 52.0683 12.91C52.3743 11.02 52.0813 9.53502 51.1963 8.49502C50.2243 7.35302 48.5003 6.74902 46.2113 6.74902ZM47.0003 13.154C46.6263 15.608 44.7513 15.608 42.9383 15.608H41.9063L42.6303 11.025C42.6733 10.748 42.9133 10.544 43.1933 10.544H43.6663C44.9013 10.544 46.0663 10.544 46.6683 11.248C47.0273 11.668 47.1373 12.292 47.0003 13.154Z" fill="white"/>
<path d="M66.654 13.0751H63.379C63.1 13.0751 62.859 13.2791 62.816 13.5561L62.671 14.4721L62.442 14.1401C61.733 13.1111 60.152 12.7671 58.574 12.7671C54.955 12.7671 51.864 15.5081 51.262 19.3531C50.949 21.2711 51.394 23.1051 52.482 24.3841C53.48 25.5601 54.908 26.0501 56.607 26.0501C59.523 26.0501 61.14 24.1751 61.14 24.1751L60.994 25.0851C60.939 25.4331 61.207 25.7451 61.556 25.7451H64.506C64.975 25.7451 65.371 25.4051 65.445 24.9421L67.215 13.7331C67.271 13.3881 67.004 13.0751 66.654 13.0751ZM62.089 19.4491C61.773 21.3201 60.288 22.5761 58.394 22.5761C57.443 22.5761 56.683 22.2711 56.195 21.6931C55.711 21.1191 55.527 20.3021 55.681 19.3921C55.976 17.5371 57.486 16.2401 59.351 16.2401C60.281 16.2401 61.037 16.5491 61.535 17.1321C62.034 17.7211 62.232 18.5431 62.089 19.4491Z" fill="white"/>
<path d="M84.0965 13.075H80.8055C80.4915 13.075 80.1965 13.231 80.0185 13.492L75.4795 20.178L73.5555 13.753C73.4345 13.351 73.0635 13.075 72.6435 13.075H69.4095C69.0165 13.075 68.7435 13.459 68.8685 13.829L72.4935 24.467L69.0855 29.278C68.8175 29.657 69.0875 30.178 69.5505 30.178H72.8375C73.1495 30.178 73.4415 30.026 73.6185 29.77L84.5645 13.97C84.8265 13.592 84.5575 13.075 84.0965 13.075Z" fill="white"/>
<path d="M94.9926 6.74902H88.1526C87.6856 6.74902 87.2876 7.08902 87.2146 7.55102L84.4486 25.088C84.3936 25.434 84.6616 25.746 85.0106 25.746H88.5206C88.8466 25.746 89.1256 25.508 89.1766 25.184L89.9616 20.213C90.0336 19.75 90.4326 19.41 90.8996 19.41H93.0636C97.5696 19.41 100.169 17.23 100.849 12.91C101.156 11.02 100.861 9.53502 99.9756 8.49502C99.0046 7.35302 97.2816 6.74902 94.9926 6.74902ZM95.7816 13.154C95.4086 15.608 93.5336 15.608 91.7196 15.608H90.6886L91.4136 11.025C91.4566 10.748 91.6946 10.544 91.9756 10.544H92.4486C93.6826 10.544 94.8486 10.544 95.4506 11.248C95.8096 11.668 95.9186 12.292 95.7816 13.154Z" fill="white"/>
<path d="M115.435 13.0751H112.162C111.881 13.0751 111.642 13.2791 111.6 13.5561L111.455 14.4721L111.225 14.1401C110.516 13.1111 108.936 12.7671 107.358 12.7671C103.739 12.7671 100.649 15.5081 100.047 19.3531C99.7349 21.2711 100.178 23.1051 101.266 24.3841C102.266 25.5601 103.692 26.0501 105.391 26.0501C108.307 26.0501 109.924 24.1751 109.924 24.1751L109.778 25.0851C109.723 25.4331 109.991 25.7451 110.342 25.7451H113.291C113.758 25.7451 114.156 25.4051 114.229 24.9421L116 13.7331C116.054 13.3881 115.786 13.0751 115.435 13.0751ZM110.87 19.4491C110.556 21.3201 109.069 22.5761 107.175 22.5761C106.226 22.5761 105.464 22.2711 104.976 21.6931C104.492 21.1191 104.31 20.3021 104.462 19.3921C104.759 17.5371 106.267 16.2401 108.132 16.2401C109.062 16.2401 109.818 16.5491 110.316 17.1321C110.817 17.7211 111.015 18.5431 110.87 19.4491Z" fill="white"/>
<path d="M119.295 7.23005L116.488 25.088C116.433 25.434 116.701 25.746 117.05 25.746H119.872C120.341 25.746 120.739 25.406 120.811 24.943L123.579 7.40705C123.634 7.06105 123.366 6.74805 123.017 6.74805H119.857C119.578 6.74905 119.338 6.95305 119.295 7.23005Z" fill="white"/>
<path d="M7.26555 29.1539L7.78855 25.8319L6.62355 25.8049H1.06055L4.92655 1.29193C4.93855 1.21793 4.97755 1.14893 5.03455 1.09993C5.09155 1.05093 5.16455 1.02393 5.24055 1.02393H14.6205C17.7345 1.02393 19.8835 1.67193 21.0055 2.95093C21.5315 3.55093 21.8665 4.17793 22.0285 4.86793C22.1985 5.59193 22.2015 6.45693 22.0355 7.51193L22.0235 7.58893V8.26493L22.5495 8.56293C22.9925 8.79793 23.3445 9.06693 23.6145 9.37493C24.0645 9.88793 24.3555 10.5399 24.4785 11.3129C24.6055 12.1079 24.5635 13.0539 24.3555 14.1249C24.1155 15.3569 23.7275 16.4299 23.2035 17.3079C22.7215 18.1169 22.1075 18.7879 21.3785 19.3079C20.6825 19.8019 19.8555 20.1769 18.9205 20.4169C18.0145 20.6529 16.9815 20.7719 15.8485 20.7719H15.1185C14.5965 20.7719 14.0895 20.9599 13.6915 21.2969C13.2925 21.6409 13.0285 22.1109 12.9475 22.6249L12.8925 22.9239L11.9685 28.7789L11.9265 28.9939C11.9155 29.0619 11.8965 29.0959 11.8685 29.1189C11.8435 29.1399 11.8075 29.1539 11.7725 29.1539H7.26555Z" fill="white"/>
<path d="M23.0472 7.66699C23.0192 7.84599 22.9872 8.02899 22.9512 8.21699C21.7142 14.568 17.4822 16.762 12.0772 16.762H9.32517C8.66417 16.762 8.10717 17.242 8.00417 17.894L6.59517 26.83L6.19617 29.363C6.12917 29.791 6.45917 30.177 6.89117 30.177H11.7722C12.3502 30.177 12.8412 29.757 12.9322 29.187L12.9802 28.939L13.8992 23.107L13.9582 22.787C14.0482 22.215 14.5402 21.795 15.1182 21.795H15.8482C20.5772 21.795 24.2792 19.875 25.3612 14.319C25.8132 11.998 25.5792 10.06 24.3832 8.69699C24.0212 8.28599 23.5722 7.94499 23.0472 7.66699Z" fill="#E1E1E1"/>
<path d="M21.7549 7.15103C21.5659 7.09603 21.3709 7.04603 21.1709 7.00103C20.9699 6.95703 20.7639 6.91803 20.5519 6.88403C19.8099 6.76403 18.9969 6.70703 18.1259 6.70703H10.7739C10.5929 6.70703 10.4209 6.74803 10.2669 6.82203C9.92786 6.98503 9.67586 7.30603 9.61486 7.69903L8.05086 17.605L8.00586 17.894C8.10886 17.242 8.66586 16.762 9.32686 16.762H12.0789C17.4839 16.762 21.7159 14.567 22.9529 8.21703C22.9899 8.02903 23.0209 7.84603 23.0489 7.66703C22.7359 7.50103 22.3969 7.35903 22.0319 7.23803C21.9419 7.20803 21.8489 7.17903 21.7549 7.15103Z" fill="#F1F1F1"/>
<path d="M9.61399 7.699C9.67499 7.306 9.92699 6.985 10.266 6.823C10.421 6.749 10.592 6.708 10.773 6.708H18.125C18.996 6.708 19.809 6.765 20.551 6.885C20.763 6.919 20.969 6.958 21.17 7.002C21.37 7.047 21.565 7.097 21.754 7.152C21.848 7.18 21.941 7.209 22.032 7.238C22.397 7.359 22.736 7.502 23.049 7.667C23.417 5.32 23.046 3.722 21.777 2.275C20.378 0.682 17.853 0 14.622 0H5.24199C4.58199 0 4.01899 0.48 3.91699 1.133L0.00998882 25.898C-0.0670112 26.388 0.310989 26.83 0.804989 26.83H6.59599L8.04999 17.605L9.61399 7.699Z" fill="white"/>
</svg>
