<svg width="1001" height="298" viewBox="0 0 1001 298" fill="none" xmlns="http://www.w3.org/2000/svg">
<path fill-rule="evenodd" clip-rule="evenodd" d="M947.315 252.656L1000.43 221.992V46.2057L947.315 15.5133V252.656Z" fill="#64BAE8"/>
<path fill-rule="evenodd" clip-rule="evenodd" d="M738.414 221.992L791.524 252.692V15.5133L738.414 46.1768V221.992Z" fill="#059FDB"/>
<path fill-rule="evenodd" clip-rule="evenodd" d="M738.414 160.839L830.413 213.349L907.87 213.646L923.459 266.453H815.344L738.414 222V160.839Z" fill="#64BAE8"/>
<path fill-rule="evenodd" clip-rule="evenodd" d="M1000.42 160.839L815.373 266.46H923.488L1000.42 222V160.839Z" fill="#059FDB"/>
<path fill-rule="evenodd" clip-rule="evenodd" d="M183.05 266.496L182.327 265.491L98.7698 143.183H125.17C140.248 144.237 155.213 139.924 167.418 131.006C171.997 126.534 175.635 121.191 178.119 115.292C180.604 109.393 181.883 103.057 181.883 96.6567C181.883 90.2561 180.604 83.92 178.119 78.0212C175.635 72.1223 171.997 66.7797 167.418 62.3074C155.162 53.511 140.219 49.2702 125.17 50.3178H74.9282V152.311L43.9682 108.111L13.3335 152.311V0.0403699H128.66C149.755 -0.452437 170.712 3.57155 190.125 11.8421C206.488 18.855 220.444 30.4978 230.277 45.3385C239.923 60.7083 244.823 78.5816 244.363 96.7218C245.068 114.693 240.174 132.44 230.355 147.508C220.536 162.576 206.279 174.222 189.554 180.835L249.313 266.467L183.05 266.496ZM478.181 164.879C478.181 165.64 477.801 170.968 477.039 180.864H322.138C324.607 193.066 331.697 203.84 341.925 210.935C353.384 218.605 366.969 222.466 380.748 221.971C390.411 222.142 400.022 220.53 409.099 217.216C417.709 213.807 425.54 208.694 432.124 202.184L463.713 236.439C444.441 258.515 416.276 269.553 379.216 269.553C358.007 269.976 337.003 265.343 317.939 256.038C300.936 247.729 286.671 234.72 276.833 218.553C267.068 202.099 262.064 183.257 262.379 164.127C262.119 145.098 267.054 126.358 276.652 109.925C285.987 93.9851 299.555 80.9425 315.851 72.2444C332.871 63.4658 351.726 58.8377 370.876 58.7385C390.027 58.6393 408.929 63.0716 426.039 71.6734C442.088 80.1145 455.368 92.9977 464.291 108.783C473.815 125.934 478.609 145.309 478.181 164.922V164.879ZM371.989 103.602C359.692 103.209 347.666 107.263 338.117 115.02C328.81 122.946 322.831 134.089 321.372 146.226H422.23C420.682 134.17 414.715 123.117 405.486 115.208C396.11 107.382 384.197 103.255 371.989 103.602V103.602ZM705.936 61.7364H648.844L590.234 201.035L533.525 61.7364H472.241L558.24 266.496H619.517L705.936 61.7364Z" fill="#34485D"/>
<path fill-rule="evenodd" clip-rule="evenodd" d="M44.0045 133.99L13.0084 180.77V224.384L0 239.322V268.396L44.0118 229.775L49.8367 184.542L44.0045 133.99Z" fill="#059FDB"/>
<path fill-rule="evenodd" clip-rule="evenodd" d="M44.0117 133.99L75.015 180.77V224.384L88.0234 239.322V268.396L44.0117 229.775V133.99Z" fill="#64BAE8"/>
<path fill-rule="evenodd" clip-rule="evenodd" d="M44.0044 239.568L26.4431 254.983L44.0044 297.086L48.5357 260.453L44.0044 239.568Z" fill="#64BAE8"/>
<path fill-rule="evenodd" clip-rule="evenodd" d="M44.0117 239.568L61.573 254.983L44.0117 297.086V239.568Z" fill="#059FDB"/>
</svg>
