<svg width="675" height="996" viewBox="0 0 675 996" fill="none" xmlns="http://www.w3.org/2000/svg">
<path fill-rule="evenodd" clip-rule="evenodd" d="M68.7141 34.2133C49.7387 34.2133 34.2133 49.4511 34.2133 68.4266V927.209C34.2133 946.184 49.7387 961.422 68.7141 961.422H605.777C624.752 961.422 640.277 946.184 640.277 927.209V68.4266C640.277 49.4511 624.752 34.2133 605.777 34.2133H68.7141ZM605.777 995.636H68.7141C30.7632 995.636 0 964.872 0 927.209V68.4266C0 30.7632 30.7632 0 68.7141 0H605.777C643.727 0 674.491 30.7632 674.491 68.4266V927.209C674.778 964.872 643.727 995.636 605.777 995.636Z" fill="#6A28C8"/>
<path fill-rule="evenodd" clip-rule="evenodd" d="M128.804 734.857H347.884C352.771 734.857 357.371 736.869 360.534 740.319L455.411 842.097V751.82C455.411 742.332 463.174 734.857 472.661 734.857H545.688V188.019H128.804V734.857ZM472.661 903.048C468.061 903.048 463.461 901.035 460.011 897.585L340.408 769.07H111.841C102.353 769.07 94.5902 761.307 94.5902 752.107V170.769C94.5902 161.281 102.353 153.806 111.841 153.806H562.939C572.426 153.806 580.189 161.568 580.189 170.769V751.82C580.189 761.307 572.426 768.782 562.939 768.782H489.912V885.51C489.912 892.41 485.599 898.735 478.987 901.323C476.974 902.473 474.674 903.048 472.661 903.048Z" fill="#6A28C8"/>
<path fill-rule="evenodd" clip-rule="evenodd" d="M408.26 108.67H266.519C257.032 108.67 249.269 100.907 249.269 91.707C249.269 82.5068 257.032 74.7441 266.519 74.7441H408.26C417.748 74.7441 425.511 82.5068 425.511 91.707C425.511 100.907 417.748 108.67 408.26 108.67Z" fill="#6A28C8"/>
</svg>
