<?xml version="1.0" encoding="UTF-8" standalone="no"?>
<!DOCTYPE svg PUBLIC "-//W3C//DTD SVG 1.1//EN" "http://www.w3.org/Graphics/SVG/1.1/DTD/svg11.dtd">
<svg xmlns="http://www.w3.org/2000/svg" version="1.1" viewBox="0.00 0.00 209.00 212.00">
<path fill="#ffffff" d="
  M 31.85 0.00
  Q 32.04 0.00 32.23 0.00
  L 36.66 44.71
  A 1.05 1.03 -77.2 0 0 37.15 45.50
  Q 61.13 60.32 82.44 73.53
  Q 88.70 77.41 91.71 83.36
  Q 93.67 87.23 94.46 93.94
  Q 98.11 124.84 102.06 155.38
  C 102.24 156.76 103.44 157.53 104.75 156.89
  A 1.32 1.29 -9.5 0 0 105.49 155.88
  Q 109.38 126.88 112.29 101.29
  Q 113.72 88.75 114.61 86.43
  Q 117.81 78.09 124.72 73.80
  Q 147.63 59.58 170.52 45.52
  A 1.00 0.96 77.8 0 0 170.98 44.78
  L 175.35 0.00
  L 175.77 0.00
  L 207.31 22.23
  A 1.19 1.17 -70.0 0 1 207.80 23.30
  L 202.96 72.70
  A 1.18 1.16 77.5 0 1 202.41 73.58
  Q 182.25 85.97 162.40 98.44
  C 157.20 101.71 154.61 107.00 154.03 113.13
  Q 149.78 157.74 145.16 204.26
  C 144.71 208.81 141.28 211.22 136.39 211.23
  Q 105.37 211.28 70.58 211.24
  C 66.44 211.23 63.09 208.72 62.63 204.30
  Q 58.21 161.14 54.29 118.50
  Q 53.58 110.74 52.79 108.06
  Q 50.97 101.89 44.39 97.80
  Q 25.33 85.93 5.26 73.52
  A 1.07 1.07 0.0 0 1 4.76 72.71
  L 0.00 25.11
  L 0.00 22.44
  L 31.85 0.00
  Z"
/>
<path fill="#ffffff" d="
  M 34.85 104.88
  C 38.99 107.42 42.93 109.25 43.51 114.91
  Q 45.25 131.90 47.02 150.31
  Q 47.13 151.36 46.23 150.80
  Q 29.21 140.23 13.85 130.58
  C 11.47 129.09 10.05 126.23 9.77 123.41
  Q 8.07 106.29 6.28 87.90
  Q 6.20 87.12 6.86 87.53
  Q 20.46 96.04 34.85 104.88
  Z"
/>
<path fill="#ffffff" d="
  M 190.06 133.00
  Q 176.00 141.67 161.09 151.01
  Q 160.57 151.34 160.63 150.73
  Q 162.37 132.15 164.21 114.01
  C 164.49 111.27 166.76 108.59 169.15 107.12
  Q 184.87 97.54 200.86 87.49
  Q 201.42 87.14 201.36 87.79
  Q 199.75 105.27 197.95 122.63
  C 197.34 128.56 194.73 130.12 190.06 133.00
  Z"
/>
</svg>
