<svg width="52" height="52" viewBox="0 0 52 52" fill="none" xmlns="http://www.w3.org/2000/svg">
<path d="M18.2458 9.09729L19.9637 10.3857L19.6637 10.7857L21.3817 12.0742L21.6817 11.6742L23.3996 12.9626L23.0996 13.3626L24.8175 14.6511L25.1175 14.2511L26.8355 15.5396L26.5355 15.9396L27.3944 16.5838L27.6944 16.8088L27.9944 16.5838L28.8534 15.9396L28.5534 15.5396L30.2713 14.2511L30.5713 14.6511L32.2893 13.3626L31.9893 12.9626L33.7072 11.6742L34.0072 12.0742L35.7252 10.7857L35.4252 10.3857L37.1431 9.09729L37.4431 9.49729L38.1638 8.95676H39.1686V8.45676H41.5015V8.95676H43.8345V8.45676H46.1675V8.95676H48.5005V8.45676H50.8335V8.95676H51.3694C51.3487 9.03861 51.3271 9.12163 51.3046 9.20575L51.7875 9.33511C51.6431 9.87448 51.4629 10.4556 51.2454 11.0625L50.7747 10.8938C50.5842 11.4255 50.3644 11.9776 50.1142 12.5389L50.5709 12.7425C50.3317 13.2788 50.0655 13.8233 49.7711 14.3667L49.3315 14.1285C49.0548 14.6392 48.7531 15.1481 48.4257 15.6473L48.8438 15.9215C48.5158 16.4218 48.1621 16.913 47.7821 17.3876L47.3918 17.0751C47.0267 17.531 46.6375 17.9699 46.2235 18.385L46.5775 18.7381C46.1526 19.1642 45.7016 19.5668 45.2237 19.9386L44.9166 19.544C44.6878 19.7221 44.4528 19.8926 44.2116 20.0548L42.8509 20.9697H44.4906H44.7213V20.8128L44.7696 20.8846C44.7815 20.8766 44.7933 20.8686 44.8052 20.8606C44.7688 20.9975 44.7284 21.1393 44.6838 21.2854L45.1621 21.4312C44.9866 22.0071 44.751 22.6411 44.4511 23.2903L43.9972 23.0806C43.7385 23.6405 43.431 24.2104 43.0724 24.7609L43.4914 25.0338C43.1341 25.5823 42.7271 26.1139 42.2676 26.6018L41.9036 26.259C41.4739 26.7153 40.9993 27.1277 40.4783 27.4741L40.7551 27.8905C40.2116 28.2519 39.6171 28.5485 38.9694 28.7566L38.8165 28.2806C38.5289 28.373 38.2299 28.4466 37.919 28.4989L37.5021 28.5692V28.992V29.6553H38.0021V30.982H37.5021V31.4383L36.9231 32.0172L37.2767 32.3708L35.8259 33.8215L35.4723 33.468L34.7469 34.1934L33.8934 35.0469H35.1005H35.9221V34.5469H37.5653V35.0469H38.137L37.637 36.0469L37.1898 35.8233L36.9398 36.3233L36.8279 36.5469L36.9398 36.7705L37.1898 37.2705L37.637 37.0469L38.137 38.0469L37.6898 38.2705L37.9398 38.7705L38.0536 38.7136L38.137 38.7969L37.887 39.0469H37.387L37.2834 38.9434L37.0334 39.1934L36.1799 40.0469H37.387H38.387V39.5469H40.387V40.0469H41.137L40.637 41.0469L40.1898 40.8233L39.9398 41.3233L39.8279 41.5469L39.9398 41.7705L40.1898 42.2705L40.637 42.0469L41.137 43.0469H40.5536V43.5469H38.887V43.0469H37.2203V43.5469H35.5536V43.0469H33.887V43.5469H32.2203V43.0469H31.887V42.5469H31.387V40.5469H31.887V39.754L31.9905 39.6505L31.887 39.5469L31.637 39.2969L32.0653 38.8686V39.0469H32.387L32.4905 39.1505L32.7405 38.9005L33.5941 38.0469H32.387H32.0653V38.2253L32.0334 38.1934L31.7834 38.4434L31.887 38.5469H31.4221V38.0469H31.1005H30.8934L30.7469 38.1934L29.8954 39.0449L30.249 39.3984L28.546 41.1014L28.1925 40.7479L27.6945 41.2458L27.1965 40.7479L26.843 41.1014L25.1399 39.3984L25.4935 39.0449L24.6419 38.1934L24.4955 38.0469H24.2884H24.063V38.5469H23.887L23.9905 38.4434L23.7405 38.1934L23.6123 38.3216V38.0469H23.387H22.1799L23.0334 38.9005L23.2834 39.1505L23.387 39.0469H23.6123V38.8216L23.637 38.7969L24.137 39.2969L23.887 39.5469L23.7834 39.6505L23.887 39.754V40.5469H24.387V42.5469H23.887V43.0469H23.5536V43.5469H21.887V43.0469H20.2203V43.5469H18.5536V43.0469H16.887V43.5469H15.2203V43.0469H14.637L15.137 42.0469L15.5842 42.2705L15.8342 41.7705L15.946 41.5469L15.8342 41.3233L15.5842 40.8233L15.137 41.0469L14.637 40.0469H15.387V39.5469H17.387V40.0469H18.387H19.5941L18.7405 39.1934L18.4905 38.9434L18.387 39.0469H17.887L17.637 38.7969L17.7203 38.7136L17.8342 38.7705L18.0842 38.2705L17.637 38.0469L18.137 37.0469L18.5842 37.2705L18.8342 36.7705L18.946 36.5469L18.8342 36.3233L18.5842 35.8233L18.137 36.0469L17.637 35.0469H18.1123V34.5469H19.563V35.0469H20.2884H21.4955L20.6419 34.1934L19.9165 33.468L19.563 33.8215L18.1122 32.3708L18.4658 32.0172L17.8868 31.4383V30.9406H17.3868V29.5309H17.8868V28.8261V28.3494L17.4106 28.3267C17.0375 28.3089 16.6789 28.2641 16.3345 28.1953L16.2366 28.6856C15.45 28.5285 14.7285 28.2542 14.0692 27.8926L14.3096 27.4542C13.6676 27.1021 13.0845 26.6597 12.5577 26.1558L12.2121 26.5172C11.6493 25.9789 11.1522 25.3784 10.7173 24.751L11.1282 24.4661C10.6928 23.8382 10.3207 23.1801 10.0087 22.53L9.55792 22.7463C9.19788 21.9961 8.9169 21.2591 8.70944 20.5911L9.18694 20.4428C9.08936 20.1286 9.00902 19.8315 8.94512 19.5578C9.05306 19.657 9.16258 19.7548 9.27367 19.851L9.3042 19.8157V19.973H9.60101H10.942L9.92836 19.0951C9.6675 18.8691 9.41526 18.6335 9.17153 18.3895L8.81777 18.7428C8.3109 18.2353 7.84117 17.6945 7.40733 17.1327L7.80308 16.8271C7.37427 16.2718 6.9807 15.6943 6.62133 15.1072L6.19488 15.3682C5.8144 14.7466 5.47215 14.1157 5.16669 13.49L5.61601 13.2706C5.29751 12.6181 5.01977 11.9711 4.7812 11.3466L4.31413 11.5251C4.04091 10.8099 3.81801 10.1239 3.64298 9.49144L4.12487 9.35808C4.08672 9.22022 4.05094 9.08512 4.0175 8.95306H4.55362V8.45306H6.88693V8.95306H9.22024V8.45306H11.5535V8.95306H13.8869V8.45306H16.2202V8.95306H17.2202L17.9458 9.49729L18.2458 9.09729Z" stroke="#959595" stroke-dasharray="2 2"/>
</svg>
